ply
format ascii 1.0
comment Created by Blender 2.76 (sub 0) - www.blender.org, source file: 'untitled.blend'
element vertex 96
property float x
property float y
property float z
property float s
property float t
element face 54
property list uchar uint vertex_indices
end_header
-0.600000 -0.600000 -1.000000 0.066787 0.400120
-0.600000 -1.000000 -1.000000 0.000200 0.400120
-1.000000 -1.000000 -1.000000 0.000200 0.333533
-1.000000 -0.600000 -1.000000 0.066787 0.333533
-0.600000 -0.600000 1.000000 0.066787 0.733453
-1.000000 -0.600000 1.000000 0.000200 0.733453
-1.000000 -1.000000 1.000000 0.000200 0.666867
-0.600000 -1.000000 1.000000 0.066787 0.666867
1.000000 -0.600001 0.600000 0.400120 0.599880
1.000000 -0.600001 1.000000 0.400120 0.666467
0.999999 -1.000001 1.000000 0.333533 0.666467
0.999999 -1.000000 0.600000 0.333533 0.599880
-0.600000 -1.000000 0.600000 0.400120 0.266547
-0.600000 -1.000000 1.000000 0.400120 0.333133
-1.000000 -1.000000 1.000000 0.333533 0.333133
-1.000000 -1.000000 0.600000 0.333533 0.266547
-1.000000 0.600000 0.600000 0.933213 0.066787
-1.000000 0.600000 1.000000 0.933213 0.000200
-1.000000 1.000000 1.000000 0.999800 0.000200
-1.000000 1.000000 0.600000 0.999800 0.066787
-0.600000 1.000000 -0.600000 0.066787 0.266547
-0.600000 1.000000 -1.000000 0.066787 0.333134
-1.000000 1.000000 -1.000000 0.000200 0.333134
-1.000000 1.000000 -0.600000 0.000200 0.266547
-1.000000 -0.600000 0.600000 0.733453 0.066787
-1.000000 -0.600000 1.000000 0.733453 0.000200
1.000000 1.000000 0.600000 0.666467 0.599880
1.000000 0.999999 1.000000 0.666467 0.666467
1.000000 0.599999 1.000000 0.599880 0.666467
1.000000 0.600000 0.600000 0.599880 0.599880
-0.600000 1.000000 1.000000 0.066787 0.999800
-1.000000 1.000000 1.000000 0.000200 0.999800
-1.000000 0.600000 1.000000 0.000200 0.933213
-0.600000 0.600000 1.000000 0.066787 0.933213
-0.600000 1.000000 -1.000000 0.333134 0.400120
-0.600000 0.600000 -1.000000 0.266547 0.400120
-1.000000 0.600000 -1.000000 0.266547 0.333533
-1.000000 1.000000 -1.000000 0.333134 0.333533
-1.000000 -1.000000 0.600000 0.666867 0.066787
-1.000000 -1.000000 1.000000 0.666867 0.000200
1.000000 0.600000 -0.600000 0.599880 0.400120
1.000000 -0.600000 -0.600000 0.400120 0.400120
-1.000000 -1.000000 -0.600000 0.666867 0.266547
-1.000000 -0.600000 -0.600000 0.733453 0.266547
1.000000 1.000000 -0.600000 0.666467 0.400120
-1.000000 0.600000 -0.600000 0.933213 0.266547
-0.600000 1.000000 1.000000 0.066786 0.000200
-0.600000 1.000000 0.600000 0.066787 0.066787
-1.000000 1.000000 0.600000 0.000200 0.066787
-1.000000 1.000000 1.000000 0.000200 0.000200
-1.000000 1.000000 -0.600000 0.999800 0.266547
-0.600000 -1.000000 -0.600000 0.400120 0.066787
-1.000000 -1.000000 -0.600000 0.333533 0.066787
1.000000 -1.000000 -0.600000 0.333533 0.400120
1.000000 -0.600000 -1.000000 0.400120 0.333533
1.000000 -1.000000 -1.000000 0.333533 0.333533
-0.600000 -1.000000 -1.000000 0.400120 0.000200
-1.000000 -1.000000 -1.000000 0.333533 0.000200
-1.000000 0.600000 -1.000000 0.933213 0.333133
-1.000000 1.000000 -1.000000 0.999800 0.333133
-1.000000 -0.600000 -1.000000 0.733453 0.333134
1.000000 1.000000 -1.000000 0.666467 0.333533
1.000000 0.600000 -1.000000 0.599880 0.333533
-1.000000 -1.000000 -1.000000 0.666867 0.333134
1.000000 1.000000 0.600000 0.333134 0.066787
1.000000 1.000000 -0.600000 0.333134 0.266547
0.600000 1.000000 -0.600000 0.266547 0.266547
0.600000 1.000000 0.600000 0.266547 0.066787
1.000000 -1.000000 -1.000000 0.666467 0.000200
1.000000 -1.000000 -0.600000 0.666467 0.066787
0.600000 -1.000000 -0.600000 0.599880 0.066787
0.600000 -1.000000 -1.000000 0.599880 0.000200
0.999999 -1.000000 0.600000 0.666467 0.266547
0.600000 -1.000000 0.600000 0.599880 0.266547
1.000000 0.999999 1.000000 0.333134 0.000200
0.600000 1.000000 1.000000 0.266547 0.000200
1.000000 0.600000 -1.000000 0.266547 0.666467
1.000000 -0.600000 -1.000000 0.066787 0.666467
0.600000 -0.600000 -1.000000 0.066787 0.599880
0.600000 0.600000 -1.000000 0.266547 0.599880
1.000000 0.599999 1.000000 0.333134 0.933213
0.600000 0.600000 1.000000 0.266547 0.933213
0.600000 -0.600000 1.000000 0.266547 0.733453
1.000000 -0.600001 1.000000 0.333133 0.733453
1.000000 1.000000 -1.000000 0.333134 0.666467
0.600000 1.000000 -1.000000 0.333134 0.599880
1.000000 0.999999 1.000000 0.333134 0.999800
0.600000 1.000000 1.000000 0.266547 0.999800
1.000000 1.000000 -1.000000 0.333134 0.333133
0.600000 1.000000 -1.000000 0.266547 0.333134
0.999999 -1.000001 1.000000 0.666467 0.333133
0.599999 -1.000000 1.000000 0.599880 0.333133
0.599999 -1.000000 1.000000 0.266547 0.666867
0.999999 -1.000001 1.000000 0.333133 0.666867
1.000000 -1.000000 -1.000000 0.000200 0.666467
0.600000 -1.000000 -1.000000 0.000200 0.599880
4 0 1 2 3
4 4 5 6 7
4 8 9 10 11
4 12 13 14 15
4 16 17 18 19
4 20 21 22 23
4 24 25 17 16
4 26 27 28 29
4 30 31 32 33
4 34 35 36 37
4 38 39 25 24
4 29 28 9 8
4 33 32 5 4
4 35 0 3 36
4 40 29 8 41
4 42 38 24 43
4 44 26 29 40
4 43 24 16 45
4 46 47 48 49
4 45 16 19 50
4 51 12 15 52
4 41 8 11 53
4 54 41 53 55
4 56 51 52 57
4 58 45 50 59
4 60 43 45 58
4 61 44 40 62
4 63 42 43 60
4 62 40 41 54
4 47 20 23 48
4 64 65 66 67
4 68 69 70 71
4 69 72 73 70
4 74 64 67 75
4 76 77 78 79
4 80 81 82 83
4 84 76 79 85
4 86 87 81 80
4 65 88 89 66
4 72 90 91 73
4 83 82 92 93
4 77 94 95 78
4 67 66 20 47
4 71 70 51 56
4 70 73 12 51
4 75 67 47 46
4 79 78 0 35
4 81 33 4 82
4 85 79 35 34
4 87 30 33 81
4 66 89 21 20
4 73 91 13 12
4 82 4 7 92
4 78 95 1 0
